<svg width="23" height="26" viewBox="0 0 23 26" fill="currentColor" xmlns="http://www.w3.org/2000/svg">
<path d="M22 17.3309V7.99761C21.9996 7.58843 21.8916 7.18655 21.6868 6.8323C21.482 6.47804 21.1877 6.18386 20.8333 5.97927L12.6667 1.31261C12.312 1.10781 11.9096 1 11.5 1C11.0904 1 10.688 1.10781 10.3333 1.31261L2.16667 5.97927C1.81231 6.18386 1.51798 6.47804 1.31321 6.8323C1.10843 7.18655 1.00042 7.58843 1 7.99761V17.3309C1.00042 17.7401 1.10843 18.142 1.31321 18.4962C1.51798 18.8505 1.81231 19.1447 2.16667 19.3493L10.3333 24.0159C10.688 24.2207 11.0904 24.3285 11.5 24.3285C11.9096 24.3285 12.312 24.2207 12.6667 24.0159L20.8333 19.3493C21.1877 19.1447 21.482 18.8505 21.6868 18.4962C21.8916 18.142 21.9996 17.7401 22 17.3309Z" stroke="white" stroke-width="2" stroke-linecap="round" stroke-linejoin="round"/>
</svg>
